<?xml version="1.0" encoding="utf-8"?>
<!-- Generator: Adobe Illustrator 22.1.0, SVG Export Plug-In . SVG Version: 6.00 Build 0)  -->
<svg version="1.1" id="Layer_1" xmlns="http://www.w3.org/2000/svg" xmlns:xlink="http://www.w3.org/1999/xlink" x="0px" y="0px"
	 viewBox="0 0 429.7 231.5" style="enable-background:new 0 0 429.7 231.5;" xml:space="preserve">
<style type="text/css">
	.st0{fill:#E1251B;}
	.st1{fill:#FFFFFF;}
</style>
<title>partner</title>
<path class="st0" d="M214.8,0C96.2,0,0,51.8,0,115.7c0,63.9,96.2,115.8,214.8,115.8s214.8-51.8,214.8-115.8
	C429.7,51.8,333.5,0,214.8,0z"/>
<g>
	<path class="st1" d="M390.7,97.4c0-1.4-0.8-2-2.5-2h-2.6v6.9h1.1v-2.9h1.1l1.8,2.9h1.3l-1.9-3C389.9,99.2,390.7,98.7,390.7,97.4z
		 M386.7,98.4v-2h1.4c0.7,0,1.5,0.1,1.5,0.9c0,1-0.7,1.1-1.6,1.1H386.7z M388,92.5c-3.3,0-6.1,2.5-6.1,6.2c0,3.5,2.5,6.2,6.1,6.2
		c3.2,0,6.1-2.5,6.1-6.2C394,95,391.2,92.5,388,92.5z M388,103.9c-3,0-4.8-2.3-4.8-5.1c0-3,2.1-5.1,4.8-5.1c2.7,0,4.7,2.1,4.7,5.1
		C392.7,101.8,390.6,103.9,388,103.9z"/>
	<g>
		<path class="st1" d="M258.2,139.9c-0.4-0.6-1.2-2-2.1-4.3c-0.1-0.4-0.4-1.4-0.4-2c0.3-4.9,1-26.8,1-27.4c0.1-2.1,0.4-3.7-1.2-5.4
			c-1.7-1.8-3.7-3.9-4-4.2c-1.5-1.5-3.1-2-5.7-2c-3.3,0-9.8-0.2-10.3-0.2c-2.3,0-2.1-0.1-4.1,1c-2,1.1-4.8,3.1-5.5,3.6
			c-1.3,0.7-1.7,1.7-1.9,3c-0.2,1.8-0.8,3.8-1,5.7c-0.2,1.5,0.4,2.1,1.7,2c0.4,0,3.9-0.3,5.9-0.4c1.2-0.1,1.9-0.4,2.4-1.9
			c0.1-0.4,1.2-3.1,1.7-4.8c0.4-1.2,1-2,2.1-2.1c1.7-0.2,2-0.4,3-0.5c2-0.2,2.4,0,3,0.3c0.4,0.2,1.7,1.2,2.9,2
			c0.8,0.5,1.5,1.1,1.4,2.8c0,0.4,0.2,4.2,0.1,5c-0.1,0.7,0.5,2.6-0.9,2.4c-1.7-0.2-3.5-1.3-6.9-1.8c-0.6-0.1-1.9-0.3-3,0.1
			c-1.6,0.5-4.4,1.6-4.8,1.8c-2.7,1.1-3.2,1.4-6.6,3.2c-2.2,1.1-3.3,2.5-3.6,4.9c-0.3,2.8-0.6,9.8-0.6,10.2
			c-0.2,2.5,0.9,4.4,2.8,5.8c2.5,1.9,5.4,4,6.1,4.5c1.7,1.2,4.4,1.7,6.6,0.5c3.1-1.6,9.4-4.8,9.6-4.9c0.2-0.1,0.8-0.5,0.9-0.2
			c0.1,0.2,0.3,0.9,0.4,1.1c0.1,0.3,0.5,0.8,0.8,1.1c1.6,1.6,2.9,3.1,4.2,4.4c3,3.1,3.4,3.4,7.1,4.2c3.9,0.9,4.2,1,5,1.1
			c0.8,0.1,1.4,0.6,7-0.3c5.7-0.9,6-1,6.6-1.1c0.6-0.1,2.9-0.3,3.8-4.1c0.9-3.8,1.5-5.9,1.6-6.7c0.1-0.8,0.9-2.4-1.5-2.2
			c-2.4,0.1-3.5,0.2-4.1,0.3c-1.3,0.1-2.1,0.4-2.4,2.7c-0.4,2.6-0.2,4.2-2.6,5.2c-2.4,1-3.2,1.2-4.4,1.3c-2.1,0.2-2.7,0.3-4.7-0.1
			C260.7,143.2,259.6,142.3,258.2,139.9z M246.9,120.6c0,1.7,0,6.6,0,7.3c0,1.4-0.1,2.4-1.2,2.9c-0.6,0.2-4.1,2.1-6.3,3.3
			c-1.1,0.6-2.3,0.8-3.6,0.1c-1.3-0.6-1.8-0.8-3.3-1.7c-1.1-0.6-1.7-1.5-1.7-2.7c-0.1-1.5-0.3-5.1-0.4-6.4c-0.1-1.3,0.3-2.3,1.9-3.3
			c0.7-0.4,3.8-2,4.8-2.5c1.3-0.6,3.1-0.7,3.9-0.5c0.6,0.1,3.6,1,4.7,1.3C246.6,118.6,247,119.7,246.9,120.6z"/>
		<path class="st1" d="M128.1,138.3c-1.2-1.1-3-2.5-3.7-3.2c-0.4-0.3-0.6-0.7-0.5-1.3c0.5-4.9,2.5-27.2,2.6-27.8
			c0.2-2.1-0.4-3.7-2-5.4c-1.7-1.8-3.5-3.8-3.8-4.1c-1.6-1.6-3.9-2.5-6.4-2.5c-3.3,0-9-0.2-9.5-0.2c-2.3,0-3.8,0.3-5.8,1.6
			c-1.8,1.1-3.9,2.4-4.2,2.7c-1.2,0.9-1.9,1.8-2.2,3.1c-0.4,2.1-0.9,5.4-1,5.9c-0.2,1.5,0.4,2.1,1.6,2.1c0.4,0,4-0.3,6-0.4
			c1.2-0.1,1.8-0.4,2.3-1.9c0.1-0.4,1.2-3.4,1.8-5.1c0.4-1.2,1-1.5,2-1.7c1.4-0.2,3.2-0.5,3.6-0.5c1.1-0.1,1.8,0,2.6,0.6
			c0.4,0.2,2.6,1.8,2.9,2c0.4,0.3,1.1,1.1,1.1,2.2c0,0.5,0.1,7,0.1,7s0,1.1-1.3,0.7c-1.9-0.6-6.7-2.2-8.8-1.8
			c-1.4,0.3-3.8,1.2-4.5,1.5c-1.5,0.6-3.6,1.6-5.9,2.7c-2.4,1.2-3.2,2-3.6,2.3c-1.5,1.4-1.6,3.2-1.7,4.9c-0.2,2.8-0.6,8.8-0.6,9.2
			c0.1,2,0.7,3.8,2.6,5.2c2.5,1.9,5.9,4.4,6.4,4.8c1.7,1.3,4.9,1.3,6.4,0.6c3.2-1.6,10.1-5.2,10.2-5.3c0.2-0.1,0.4-0.1,0.5,0.3
			c0.1,0.2,0.1,0.4,0.2,0.6c0.1,0.3,0.4,0.8,0.7,1.1c1.5,1.3,4.7,4,4.9,4.2c1.1,0.9,2.2,0.9,3.1,0.4c2.4-1.3,3.7-2.1,3.9-2.2
			C129.6,139.6,129.2,139.2,128.1,138.3z M115.4,120c0,0.4,0,6.1,0,8.2c0,0.9-0.3,1.6-1.1,2c-0.6,0.3-4.6,2.4-6.9,3.5
			c-0.9,0.5-2.1,0.5-2.9,0.1c-0.6-0.3-2.5-1.3-3.5-1.8c-0.9-0.4-1.4-1.4-1.6-2.5c-0.1-0.6-0.3-4.3-0.4-6.4c-0.1-0.8,0.2-2.2,1-2.8
			c0.5-0.4,2.2-1.3,3.2-1.8c1.2-0.7,2.7-1.3,3.5-1.6c1.2-0.5,2.4-0.4,4.9,0.3c0.6,0.2,2.6,0.7,3,0.9
			C115.3,118.6,115.4,119.4,115.4,120z"/>
		<path class="st1" d="M203.3,138.2c-1.2-1.1-3-2.5-3.7-3.2c-0.4-0.3-0.6-0.7-0.5-1.3c0.5-4.9,2.5-27.2,2.6-27.8
			c0.2-2.1-0.4-3.7-2-5.4c-1.7-1.8-3.5-3.8-3.8-4.1c-1.6-1.6-3.9-2.5-6.4-2.5c-3.3,0-9-0.2-9.5-0.2c-2.3-0.1-3.8,0.3-5.8,1.6
			c-1.8,1.1-3.9,2.4-4.3,2.7c-1.2,0.9-1.9,1.8-2.2,3.1c-0.4,2.1-0.9,5.4-1,5.9c-0.2,1.5,0.4,2.1,1.6,2c0.4,0,4-0.3,6-0.4
			c1.2-0.1,1.8-0.4,2.3-1.9c0.1-0.4,1.2-3.4,1.8-5.1c0.4-1.2,1-1.5,2-1.7c1.4-0.2,3.2-0.5,3.6-0.5c1.1-0.1,1.8,0,2.6,0.6
			c0.4,0.2,2.6,1.8,2.9,2c0.4,0.3,1.1,1.1,1.1,2.2c0,0.5,0.1,7,0.1,7s0,1.1-1.3,0.7c-1.9-0.6-6.7-2.2-8.8-1.8
			c-1.4,0.3-3.8,1.2-4.5,1.5c-1.5,0.6-3.6,1.6-5.9,2.7c-2.4,1.2-3.2,2-3.6,2.3c-1.5,1.4-1.6,3.2-1.7,4.9c-0.2,2.8-0.6,8.8-0.6,9.2
			c0.1,2,0.7,3.8,2.6,5.2c2.5,1.9,5.9,4.4,6.4,4.8c1.7,1.3,4.9,1.3,6.3,0.6c3.2-1.6,10.1-5.2,10.2-5.3c0.2-0.1,0.4-0.1,0.5,0.3
			c0.1,0.2,0.1,0.4,0.2,0.6c0.1,0.3,0.4,0.8,0.7,1.1c1.5,1.3,4.7,4,4.9,4.2c1.1,0.9,2.2,0.9,3.1,0.4c2.4-1.3,3.7-2.1,3.9-2.2
			C204.6,139.7,204.2,139,203.3,138.2z M190.7,120c0,0.4,0,6.1,0,8.2c0,0.9-0.3,1.6-1.1,2c-0.6,0.3-4.6,2.4-6.9,3.5
			c-0.9,0.4-2.1,0.5-2.9,0.1c-0.6-0.3-2.5-1.3-3.5-1.8c-0.9-0.4-1.4-1.4-1.6-2.5c-0.1-0.6-0.3-4.3-0.4-6.4c-0.1-0.8,0.2-2.2,1-2.8
			c0.5-0.4,2.2-1.3,3.1-1.8c1.2-0.7,2.7-1.3,3.5-1.6c1.2-0.5,2.4-0.4,4.9,0.3c0.6,0.2,2.6,0.7,3,0.9
			C190.6,118.5,190.7,119.4,190.7,120z"/>
		<path class="st1" d="M342.5,138.3c-1.2-1.1-3-2.5-3.7-3.2c-0.4-0.3-0.6-0.7-0.5-1.3c0.5-4.9,2.5-27.2,2.6-27.8
			c0.2-2.1-0.4-3.7-2-5.4c-1.7-1.8-3.5-3.8-3.8-4.1c-1.6-1.6-3.9-2.5-6.4-2.5c-3.3,0-9-0.2-9.5-0.2c-2.3-0.1-3.8,0.3-5.8,1.6
			c-1.8,1.1-3.9,2.4-4.2,2.7c-1.2,0.9-1.9,1.8-2.2,3.1c-0.4,2.1-0.9,5.4-1,5.9c-0.2,1.5,0.4,2.1,1.6,2.1c0.4,0,4-0.3,6-0.4
			c1.2-0.1,1.8-0.4,2.3-1.9c0.1-0.4,1.2-3.4,1.8-5.1c0.4-1.2,1-1.5,2-1.7c1.4-0.2,3.2-0.5,3.6-0.5c1.1-0.1,1.8,0,2.6,0.6
			c0.4,0.2,2.6,1.8,2.9,2c0.4,0.3,1.1,1.1,1.1,2.2c0,0.5,0.1,7,0.1,7s0,1.1-1.3,0.7c-1.9-0.6-6.7-2.2-8.8-1.8
			c-1.4,0.3-3.8,1.2-4.5,1.5c-1.5,0.6-3.6,1.6-5.9,2.7c-2.4,1.2-3.2,2-3.6,2.3c-1.5,1.4-1.6,3.2-1.7,4.9c-0.2,2.8-0.6,8.8-0.6,9.2
			c0.1,2,0.7,3.8,2.6,5.2c2.5,1.9,5.9,4.4,6.4,4.8c1.7,1.3,4.9,1.3,6.3,0.6c3.2-1.6,10.1-5.2,10.2-5.3c0.2-0.1,0.4-0.1,0.5,0.3
			c0.1,0.2,0.1,0.4,0.2,0.6c0.1,0.3,0.4,0.8,0.7,1.1c1.5,1.3,4.7,4,4.9,4.2c1.1,0.9,2.2,0.9,3.1,0.4c2.4-1.3,3.7-2.1,3.9-2.2
			C343.7,139.7,343.3,139,342.5,138.3z M329.8,120c0,0.4,0,6.1,0,8.2c0,0.9-0.3,1.6-1.1,2c-0.6,0.3-4.6,2.4-6.9,3.5
			c-0.9,0.4-2.1,0.5-2.9,0.1c-0.6-0.3-2.5-1.3-3.5-1.8c-0.9-0.4-1.4-1.4-1.6-2.5c-0.1-0.6-0.3-4.3-0.4-6.4c-0.1-0.8,0.2-2.2,1-2.8
			c0.5-0.4,2.2-1.3,3.1-1.8c1.2-0.7,2.7-1.3,3.5-1.6c1.2-0.5,2.4-0.4,4.9,0.3c0.6,0.2,2.6,0.7,3,0.9
			C329.7,118.6,329.8,119.4,329.8,120z"/>
		<path class="st1" d="M152.8,138.2c0.3-1.1,9.4-32.6,11.8-41.1c0.5-1.6-0.2-2.8-1.4-2.8c-0.9,0-2.9,0-4.1,0c-1.2,0-2.2,0.9-2.5,1.9
			c-2,6.8-9.2,31.3-9.5,32.2c-0.3,1.1-1.2,1-1.3,0.1c-0.2-0.9-5.6-31.4-5.8-32.2c-0.2-1-0.5-1.8-2.4-1.9c-2.2-0.1-5.6-0.1-6.7-0.2
			c-1.7,0-2.8,0.4-2.3,1.9c0.3,1.3,8.5,33.8,10.6,42.3c0.3,1.3,1.7,1.9,3,1.7c1.1-0.1,2.3-0.3,3-0.4c1.4-0.2,2.5-0.1,3.8,0.2
			c0.5,0.1,1.1,0.2,1.6,0.3C151.4,140.4,152.5,139.4,152.8,138.2z"/>
		<path class="st1" d="M206.9,109c0,1.6,0.1,21.9,0.1,28.8c0,1.4,0.8,2.3,2.1,2.3c1.3,0,1.6,0,3.3,0.1c1.6,0.1,2.4-0.8,2.5-2.2
			c0.6-7.1,2.5-28.5,2.6-29.5c0.1-1.2-0.7-2-1.8-2c-2.1,0-5.1,0.1-6.3,0.1C207.6,106.6,206.9,107.1,206.9,109z"/>
		<path class="st1" d="M76.2,97.3c-0.5,0-5.9,0.1-8,0.1c-2.1,0.1-3.5,0.6-4.8,1.6c-0.8,0.7-2.6,2.9-2.8,3.2
			c-0.2,0.2-0.5,0.7-0.8,0.7c-0.4-0.1-0.4-0.4-0.3-1.1c0.2-2.9,1-14.9,1.2-18.7c0.1-1.3-0.4-2.3-1.9-2.3c-0.6,0-6.2,0.2-8.5,0.2
			c-1.3,0-2,0.9-2,2.1c0,0.6,0.7,48.6,0.8,56.2c0,0.6,0.4,1,1.1,1c0.5,0,4.4,0,6.2-0.1c0.5,0,0.9-0.4,0.9-0.8
			c0-0.3,1.2-19.4,1.5-25.8c0.1-2.2,0.9-5,1.8-5.8c1-0.8,3.1-2.4,4-3.1c0.9-0.6,1.6-0.7,2.3-0.7c1,0,2.7,0,3.6,0.1
			c1.1,0,1.2,0.1,2.1,0.8c0.5,0.3,1.2,0.8,1.8,1.3c1,0.8,1.5,1.4,1.4,2.8c0,0.3,0.6,22.9,0.7,28.5c0,1.5,0.2,2.7,1.8,2.7
			c0.4,0,2.8,0,4.3,0c1.5,0,1.6-1.2,1.7-2.5c0-0.4,1.2-22.9,1.7-28.6c0.2-2.4-0.2-3.6-1.4-5.2c-0.3-0.4-2-2.6-3.5-4.6
			C79.6,97.3,78.9,97.3,76.2,97.3z"/>
		<path class="st1" d="M289.9,96.8c-2.8,0-6.7,0.2-8.2,0.3c-2.2,0.1-3.1,0.7-4.1,1.8c-1.1,1.2-2.6,2.9-2.8,3.1
			c-1.4,1.3-1.6,0.8-1.5-0.7c0-0.9,0.3-3.3,0.3-4.4c0.1-1.9-1.1-2.4-2.6-2.4c-1.9,0-4.1,0-5.1,0c-3,0-3.6-0.1-3.6,3.6
			c0,2.7,0.1,30.9,0.1,39.5c0,1.6,1,2.5,2.1,2.5c1.1,0,3.8,0,4.6,0c0.8,0,1.7-1,1.9-2.6c0.5-6.8,1.6-25.3,1.7-26.4
			c0.1-1.4,0.7-2.4,1.6-3c1.5-1.2,3.4-2.6,4.1-3.2c0.7-0.6,1.5-0.8,2.5-0.8c1.6,0,2.6,0,3.6,0.1c0.8,0,1.5,0.2,2.2,0.6
			c0.8,0.5,1.9,1.8,2.3,2.2c0.6,0.7,1,0.9,1,2.2c0,6.1,0.5,26.9,0.5,28.3c0,1.8,0.6,2.6,1.6,2.7c1.3,0.1,3.1,0,3.7,0
			c1.1,0,1.7-0.8,1.9-2.1c0.7-6.3,2.4-25.7,2.6-27.8c0.4-3.6-0.3-4.3-2-6.4c-1.8-2.3-3.4-4.2-4.7-5.6
			C292.5,97.1,291.2,96.8,289.9,96.8z"/>
		<path class="st1" d="M206.3,97.6c0,3.4,2.8,6.2,6.2,6.2c3.4,0,6.2-2.8,6.2-6.2c0-3.4-2.8-6.2-6.2-6.2
			C209,91.4,206.3,94.2,206.3,97.6z"/>
		<path class="st1" d="M371.5,94.7c2.4,0.5,2.3,0.4,3.4,1.8c1,1.2,1.4,1.7,1.9,2.4c0.5,0.7,0.6,0.8,1.3,1.7c0.5,0.7,0.2,1.2-1.1,2
			c-0.7,0.4-3.9,2.1-4.6,2.4c-0.6,0.3-1.5,0.5-2-0.5c-1.1-2.2-1.1-2.5-2-2.8c-1-0.4-3.6-1.5-4.4-1.8c-1.6-0.6-2.7-0.9-4-0.2
			c-1.1,0.6-3.6,2-4.4,2.5c-1.1,0.6-1.3,1-1.2,2.3c0.1,1.4,0.2,2.5,0.3,3.2c0.3,2.3,0.6,2.7,3.5,3.5c2.1,0.6,10.4,2.9,13,3.5
			c4.5,1.2,4.8,1.1,5.7,2.5c0.8,1.2,3.3,5.5,3.8,6.3c0.9,1.5,0.8,2.8,0.3,4.5c-0.4,1.4-1.6,5.5-2,7c-0.9,3-1.1,3.2-2.9,4.1
			c-1.5,0.7-7.8,3.3-8.9,3.7c-3.3,1.3-2.4,1.6-6.2,0.6c-3.2-0.8-7.9-2-10.6-2.8c-1.4-0.4-2.6-1.5-4.2-2.9c-0.8-0.7-3.1-2.8-4.1-3.8
			c-0.4-0.4-0.3-1.5,0.3-1.8c0.9-0.5,4.5-2.3,5.4-2.8c1.2-0.6,2.1-1,3.2,0.4c0.7,0.9,1.7,1.9,2.3,2.6c0.7,0.8,0.6,0.7,1.5,1.1
			c1.5,0.7,2.1,1.1,4.2,2.1c2.4,1.2,2.7,0.9,4.4,0.1c1.4-0.6,3.9-1.9,5.1-2.5c1-0.5,2.7-1,3-2.8c0.2-1.4-0.3-2.5-0.8-3.6
			c-0.3-0.7-0.7-1.9-1.1-2.6c-0.8-1.7-1-2-2.9-2.6c-1.1-0.4-10.6-2.9-13.7-3.7c-5.4-1.4-5.5-1.8-6.4-4.5c-0.9-2.6-2-5.4-2.6-7.2
			c-0.3-1,0.1-1.6,1.7-4.7c1.3-2.6,1.1-2.1,1.6-3.1c0.4-0.7,0.9-0.7,3.8-2.1c1.2-0.6,5.9-2.7,7-3.2c1.2-0.5,1.8-0.7,2.9-0.4
			C363.1,93,369.9,94.4,371.5,94.7z"/>
	</g>
</g>
</svg>
