<?xml version="1.0" encoding="utf-8"?>
<!-- Generator: Adobe Illustrator 22.1.0, SVG Export Plug-In . SVG Version: 6.00 Build 0)  -->
<svg version="1.1" id="Layer_1" xmlns="http://www.w3.org/2000/svg" xmlns:xlink="http://www.w3.org/1999/xlink" x="0px" y="0px"
	 viewBox="0 0 1998.1 110" style="enable-background:new 0 0 1998.1 110;" xml:space="preserve">
<style type="text/css">
	.st0{fill:#EC7A4A;enable-background:new    ;}
	.st1{fill:#FFFFFF;}
</style>
<path class="st0" d="M1998.1,11C1859.8-1.5,1779.8,0.4,1640.3,0c-285.5-0.8-487.5,18-736.2,51.1C647.5,85.4,547.2,86.4,199.7,23.6
	C140.8,13,60,15.6,0,22.3V100h1998.1V11z"/>
<path class="st1" d="M1635.1,20.1c-193.8,11.9-366.9,24.9-569,50C955.9,83.8,844.9,91.6,733.8,89.7c-187-3.3-344.5-29.7-560.9-69.8
	C50.7-2.7,0.1,15.9,0.1,15.9V110h1998V16C1998,16,1831.5,8.1,1635.1,20.1z"/>
</svg>
